<svg xmlns="http://www.w3.org/2000/svg">
  <symbol id="icon-sun" viewBox="0 0 24 24" fill="none" stroke="currentColor" stroke-width="1.75" stroke-linecap="round" stroke-linejoin="round">
    <circle cx="12" cy="12" r="4"/>
    <line x1="12" y1="2.5" x2="12" y2="5"/>
    <line x1="12" y1="19" x2="12" y2="21.5"/>
    <line x1="2.5" y1="12" x2="5" y2="12"/>
    <line x1="19" y1="12" x2="21.5" y2="12"/>
    <line x1="5" y1="5" x2="6.8" y2="6.8"/>
    <line x1="17.2" y1="17.2" x2="19" y2="19"/>
    <line x1="19" y1="5" x2="17.2" y2="6.8"/>
    <line x1="6.8" y1="17.2" x2="5" y2="19"/>
  </symbol>
  <symbol id="icon-moon" viewBox="0 0 24 24" fill="none" stroke="currentColor" stroke-width="1.75" stroke-linecap="round" stroke-linejoin="round">
    <path d="M20 14.5A8.5 8.5 0 1 1 9.5 4a7 7 0 0 0 10.5 10.5Z"/>
  </symbol>
  <symbol id="icon-menu" viewBox="0 0 24 24" fill="none" stroke="currentColor" stroke-width="1.75" stroke-linecap="round" stroke-linejoin="round">
    <line x1="4" y1="7" x2="20" y2="7"/>
    <line x1="4" y1="12" x2="20" y2="12"/>
    <line x1="4" y1="17" x2="20" y2="17"/>
  </symbol>
  <symbol id="icon-briefcase" viewBox="0 0 24 24" fill="none" stroke="currentColor" stroke-width="1.75" stroke-linecap="round" stroke-linejoin="round">
    <rect x="3" y="7" width="18" height="12" rx="2"/>
    <path d="M8 7V5a2 2 0 0 1 2-2h4a2 2 0 0 1 2 2v2"/>
    <line x1="3" y1="13" x2="21" y2="13"/>
  </symbol>
  <symbol id="icon-graduation-cap" viewBox="0 0 24 24" fill="none" stroke="currentColor" stroke-width="1.75" stroke-linecap="round" stroke-linejoin="round">
    <path d="M2 8l10-5 10 5-10 5-10-5Z"/>
    <path d="M6 10.5V16c0 1.1 2.7 2.5 6 2.5s6-1.4 6-2.5v-5.5"/>
    <line x1="21" y1="8.5" x2="21" y2="14.5"/>
  </symbol>
  <symbol id="icon-home" viewBox="0 0 24 24" fill="none" stroke="currentColor" stroke-width="1.75" stroke-linecap="round" stroke-linejoin="round">
    <path d="M4 11 12 4l8 7"/>
    <path d="M6 10v9a1 1 0 0 0 1 1h4v-5h2v5h4a1 1 0 0 0 1-1v-9"/>
  </symbol>
  <symbol id="icon-lock" viewBox="0 0 24 24" fill="none" stroke="currentColor" stroke-width="1.75" stroke-linecap="round" stroke-linejoin="round">
    <rect x="5" y="11" width="14" height="9" rx="2"/>
    <path d="M8 11V8a4 4 0 0 1 8 0v3"/>
  </symbol>
  <symbol id="icon-info" viewBox="0 0 24 24" fill="none" stroke="currentColor" stroke-width="1.75" stroke-linecap="round" stroke-linejoin="round">
    <circle cx="12" cy="12" r="9"/>
    <line x1="12" y1="11" x2="12" y2="16"/>
    <circle cx="12" cy="7.7" r="0.9" fill="currentColor" stroke="none"/>
  </symbol>
  <symbol id="icon-shield-check" viewBox="0 0 24 24" fill="none" stroke="currentColor" stroke-width="1.75" stroke-linecap="round" stroke-linejoin="round">
    <path d="M12 3 19 6v6c0 4.5-3 7.5-7 9-4-1.5-7-4.5-7-9V6l7-3Z"/>
    <path d="M9 12l2 2 4-4"/>
  </symbol>
  <symbol id="icon-activity" viewBox="0 0 24 24" fill="none" stroke="currentColor" stroke-width="1.75" stroke-linecap="round" stroke-linejoin="round">
    <polyline points="3 12 8 12 10 6 14 18 16 12 21 12"/>
  </symbol>
  <symbol id="icon-search" viewBox="0 0 24 24" fill="none" stroke="currentColor" stroke-width="1.75" stroke-linecap="round" stroke-linejoin="round">
    <circle cx="10" cy="10" r="6"/>
    <line x1="15" y1="15" x2="20" y2="20"/>
  </symbol>
  <symbol id="icon-browser" viewBox="0 0 24 24" fill="none" stroke="currentColor" stroke-width="1.75" stroke-linecap="round" stroke-linejoin="round">
    <rect x="3" y="4" width="18" height="16" rx="2"/>
    <line x1="3" y1="9" x2="21" y2="9"/>
  </symbol>
  <symbol id="icon-mail" viewBox="0 0 24 24" fill="none" stroke="currentColor" stroke-width="1.75" stroke-linecap="round" stroke-linejoin="round">
    <rect x="3" y="5" width="18" height="14" rx="2"/>
    <polyline points="3 7 12 13 21 7"/>
  </symbol>
  <symbol id="icon-windows-Лого" viewBox="0 0 24 24" fill="none" stroke="currentColor" stroke-width="1.75" stroke-linecap="round" stroke-linejoin="round">
    <rect x="3" y="3" width="8" height="8"/>
    <rect x="13" y="3" width="8" height="8"/>
    <rect x="3" y="13" width="8" height="8"/>
    <rect x="13" y="13" width="8" height="8"/>
  </symbol>
  <symbol id="icon-download" viewBox="0 0 24 24" fill="none" stroke="currentColor" stroke-width="1.75" stroke-linecap="round" stroke-linejoin="round">
    <path d="M12 4v10"/>
    <polyline points="7 10 12 15 17 10"/>
    <path d="M5 19h14"/>
  </symbol>
  <symbol id="icon-shield" viewBox="0 0 24 24" fill="none" stroke="currentColor" stroke-width="1.75" stroke-linecap="round" stroke-linejoin="round">
    <path d="M12 3 19 6v6c0 4.5-3 7.5-7 9-4-1.5-7-4.5-7-9V6l7-3Z"/>
  </symbol>
  <symbol id="icon-chevron-right" viewBox="0 0 24 24" fill="none" stroke="currentColor" stroke-width="1.75" stroke-linecap="round" stroke-linejoin="round">
    <polyline points="9 6 15 12 9 18"/>
  </symbol>
  <symbol id="icon-clock" viewBox="0 0 24 24" fill="none" stroke="currentColor" stroke-width="1.75" stroke-linecap="round" stroke-linejoin="round">
    <circle cx="12" cy="12" r="9"/>
    <polyline points="12 7 12 12 15.5 14"/>
  </symbol>
</svg>
